<?xml version="1.0" encoding="utf-8"?>
<!-- Generator: Adobe Illustrator 15.1.0, SVG Export Plug-In . SVG Version: 6.00 Build 0)  -->
<!DOCTYPE svg PUBLIC "-//W3C//DTD SVG 1.1//EN" "http://www.w3.org/Graphics/SVG/1.1/DTD/svg11.dtd">
<svg version="1.1" xmlns="http://www.w3.org/2000/svg" xmlns:xlink="http://www.w3.org/1999/xlink" x="0px" y="0px" width="1000px"
	 height="1000px" viewBox="0 0 1000 1000" enable-background="new 0 0 1000 1000" xml:space="preserve">
<g id="animation">
	<path id="swoosh_x5F_left" fill="#FFFFFF" d="M654.359,650.719c29.531-3.059,51.936-28.514,50.915-59.068
		c-1.015-30.549-26.477-54.988-57.025-54.988h-2.035c-31.571,1.016-56.01,27.494-54.989,59.063
		c1.019,15.275,7.125,28.514,16.29,37.682c-34.621,68.229-87.573,118.129-167.004,159.883
		c-53.972,28.514-109.979,38.699-165.985,31.57c-45.825-6.111-81.468-26.477-103.874-60.086
		c-32.585-49.898-35.638-103.873-8.143-157.846c19.349-38.697,49.896-67.213,69.245-81.469
		c-4.073-13.24-10.185-35.643-13.238-51.935C70.857,580.449,86.133,725.059,130.94,793.289
		c33.604,50.92,101.832,82.488,177.188,82.488c20.365,0,40.73-2.037,61.099-7.125C499.575,843.189,598.354,765.793,654.359,650.719
		L654.359,650.719z"/>
	<path id="swoosh_x5F_right_1_" fill="#FFFFFF" d="M833.588,524.441c-77.395-90.637-191.446-140.535-321.794-140.535H495.5
		c-9.166-18.33-28.514-30.552-49.898-30.552h-2.038c-31.564,1.019-56.004,27.495-54.987,59.067
		c1.019,30.551,26.477,54.991,57.025,54.991h2.035c22.403-1.019,41.753-15.276,49.898-34.625h18.332
		c77.395,0,150.713,22.404,216.905,66.193c50.915,33.607,87.577,77.396,107.943,130.352c17.31,42.771,16.29,84.523-2.039,120.168
		c-28.513,53.971-76.372,83.506-139.509,83.506c-40.734,0-79.432-12.223-99.8-21.389c-11.199,10.186-31.567,26.477-45.824,36.666
		c43.79,20.365,88.598,31.568,131.367,31.568c97.758,0,170.06-53.977,197.555-107.947C911.998,712.836,909.959,611,833.588,524.441
		L833.588,524.441z"/>
	<path id="swoosh-top" fill="#764ABC" d="M316.275,668.027c1.019,30.553,26.476,54.99,57.025,54.99h2.039
		c31.567-1.016,56.005-27.496,54.986-59.063c-1.016-30.553-26.476-54.994-57.025-54.994h-2.035c-2.038,0-5.095,0-7.127,1.02
		c-41.752-69.25-59.063-144.606-52.953-226.077c4.07-61.102,24.438-114.058,60.08-157.848c29.53-37.68,86.557-56.011,125.255-57.027
		c107.941-2.038,153.763,132.385,156.821,186.36c13.239,3.055,35.642,10.185,50.919,15.276
		c-12.224-164.972-114.056-250.516-211.813-250.516c-91.651,0-176.172,66.194-209.779,163.956
		c-46.841,130.352-16.291,255.61,40.734,354.393c-5.09,7.125-8.146,18.33-7.127,29.533V668.027z"/>
	<circle id="ball_x5F_right" fill="#764ABC" cx="500" cy="500" r="56.96"/>
	<circle id="ball_x5F_left_1_" fill="#764ABC" cx="500" cy="500" r="56.96"/>
	<circle id="ball_x5F_top_1_" fill="#764ABC" cx="500" cy="500" r="56.96"/>
</g>
<g id="stock">
	<rect x="99" y="100" display="inline" opacity="0" fill="#F7DF1E" width="802" height="800"/>
	<path display="inline" fill="#764ABC" d="M654.359,650.719c29.531-3.059,51.936-28.514,50.915-59.068
		c-1.015-30.549-26.477-54.988-57.025-54.988h-2.035c-31.571,1.016-56.01,27.494-54.989,59.063
		c1.019,15.275,7.125,28.514,16.29,37.682c-34.621,68.229-87.573,118.129-167.004,159.883
		c-53.972,28.514-109.979,38.699-165.985,31.57c-45.825-6.111-81.468-26.477-103.874-60.086
		c-32.585-49.898-35.638-103.873-8.143-157.846c19.349-38.697,49.896-67.213,69.245-81.469
		c-4.073-13.24-10.185-35.643-13.238-51.935C70.857,580.449,86.133,725.059,130.94,793.289
		c33.604,50.92,101.832,82.488,177.188,82.488c20.365,0,40.73-2.037,61.099-7.125C499.575,843.189,598.354,765.793,654.359,650.719
		L654.359,650.719z M833.588,524.441c-77.395-90.637-191.446-140.535-321.794-140.535H495.5
		c-9.166-18.33-28.514-30.552-49.898-30.552h-2.038c-31.564,1.019-56.004,27.495-54.987,59.067
		c1.019,30.551,26.477,54.991,57.025,54.991h2.035c22.403-1.019,41.753-15.276,49.898-34.625h18.332
		c77.395,0,150.713,22.404,216.905,66.193c50.915,33.607,87.577,77.396,107.943,130.352c17.31,42.771,16.29,84.523-2.039,120.168
		c-28.513,53.971-76.372,83.506-139.509,83.506c-40.734,0-79.432-12.223-99.8-21.389c-11.199,10.186-31.567,26.477-45.824,36.666
		c43.79,20.365,88.598,31.568,131.367,31.568c97.758,0,170.06-53.977,197.555-107.947C911.998,712.836,909.959,611,833.588,524.441
		L833.588,524.441z M316.275,668.027c1.019,30.553,26.476,54.99,57.025,54.99h2.039c31.567-1.016,56.005-27.496,54.986-59.063
		c-1.016-30.553-26.476-54.994-57.025-54.994h-2.035c-2.038,0-5.095,0-7.127,1.02c-41.752-69.25-59.063-144.606-52.953-226.077
		c4.07-61.102,24.438-114.058,60.08-157.848c29.53-37.68,86.557-56.011,125.255-57.027
		c107.941-2.038,153.763,132.385,156.821,186.36c13.239,3.055,35.642,10.185,50.919,15.276
		c-12.224-164.972-114.056-250.516-211.813-250.516c-91.651,0-176.172,66.194-209.779,163.956
		c-46.841,130.352-16.291,255.61,40.734,354.393c-5.09,7.125-8.146,18.33-7.127,29.533V668.027z"/>
</g>
</svg>